<svg id="Camada_1" data-name="Camada 1" xmlns="http://www.w3.org/2000/svg" xmlns:xlink="http://www.w3.org/1999/xlink" viewBox="0 0 1080 1080"><defs><style>.cls-1,.cls-3{fill:none;}.cls-1,.cls-3,.cls-4{stroke:#00b3ba;stroke-miterlimit:10;}.cls-2{clip-path:url(#clip-path);}.cls-3{stroke-width:20px;}.cls-4{fill:#00b3ba;}</style><clipPath id="clip-path"><path class="cls-1" d="M665.45,57.22A497,497,0,0,0,540,41.22c-274.23,0-496.54,222.3-496.54,496.53S265.77,1034.29,540,1034.29a497,497,0,0,0,138.51-19.6c206.82-60,358-250.78,358-476.94C1036.54,306.86,878.94,112.8,665.45,57.22Z"/></clipPath></defs><g class="cls-2"><path class="cls-3" d="M1250,311.22a160,160,0,0,0-185.68,23.42h0c-115,100.32-226.19-2-226.19-2a162.23,162.23,0,0,0-184.42,29.5h0a160,160,0,0,1-226.2,2.05h0c-90.82-111.36-185.68-23.48-185.68-23.48h0a160,160,0,0,1-226.19,2.05h0A160,160,0,0,0-170,319.31"/><path class="cls-3" d="M1250,514a160,160,0,0,0-185.68,23.42h0c-115,100.32-226.19-2-226.19-2a162.23,162.23,0,0,0-184.42,29.49h0a160,160,0,0,1-226.2,2h0c-90.82-111.36-185.68-23.48-185.68-23.48h0a160,160,0,0,1-226.19,2h0A160,160,0,0,0-170,522.08"/><path class="cls-3" d="M1250,716.76a160,160,0,0,0-185.68,23.42h0c-115,100.32-226.19-2-226.19-2a162.23,162.23,0,0,0-184.42,29.49h0a160,160,0,0,1-226.2,2.05h0c-90.82-111.36-185.68-23.48-185.68-23.48h0a160,160,0,0,1-226.19,2h0A160,160,0,0,0-170,724.85"/><path class="cls-3" d="M1250,919.53A160,160,0,0,0,1064.34,943h0c-115,100.32-226.19-2-226.19-2a162.21,162.21,0,0,0-184.42,29.5h0a160,160,0,0,1-226.2,2.05h0C336.71,861.11,241.85,949,241.85,949h0a160,160,0,0,1-226.19,2h0A160,160,0,0,0-170,927.62"/></g><path class="cls-1" d="M665.45,57.22A497,497,0,0,0,540,41.22c-274.23,0-496.54,222.3-496.54,496.53S265.77,1034.29,540,1034.29a497,497,0,0,0,138.51-19.6c206.82-60,358-250.78,358-476.94C1036.54,306.86,878.94,112.8,665.45,57.22Z"/><path class="cls-4" d="M393.47,602.87a103.44,103.44,0,1,1-206.87,0c0-57.13,103.43-209,103.43-209S393.47,545.74,393.47,602.87Z"/><path class="cls-4" d="M893.4,602.87a103.44,103.44,0,1,1-206.87,0c0-57.13,103.44-209,103.44-209S893.4,545.74,893.4,602.87Z"/><path class="cls-4" d="M643.44,759.1a103.44,103.44,0,0,1-206.88,0c0-57.12,103.44-209,103.44-209S643.44,702,643.44,759.1Z"/><path class="cls-3" d="M665.45,57.22A497,497,0,0,0,540,41.22c-274.23,0-496.54,222.3-496.54,496.53S265.77,1034.29,540,1034.29a497,497,0,0,0,138.51-19.6c206.82-60,358-250.78,358-476.94C1036.54,306.86,878.94,112.8,665.45,57.22Z"/></svg>