<svg id="Camada_1" data-name="Camada 1" xmlns="http://www.w3.org/2000/svg" xmlns:xlink="http://www.w3.org/1999/xlink" viewBox="0 0 1080 1080"><defs><style>.cls-1,.cls-3{fill:none;stroke:#00b3ba;}.cls-1{stroke-miterlimit:10;}.cls-2{clip-path:url(#clip-path);}.cls-3{stroke-linecap:round;stroke-linejoin:round;stroke-width:20px;}</style><clipPath id="clip-path"><circle class="cls-1" cx="540" cy="528.97" r="496.54"/></clipPath></defs><g class="cls-2"><path class="cls-3" d="M567.39,260.55C526.67,384,393.57,451.11,270.09,410.39h0C52,338.45-183.18,457-255.12,675.1"/><path class="cls-3" d="M-265.15,802.43c106.22,75,253.1,49.64,328.07-56.58h0C327,529,473.89,890.69,766.23,689.43"/><path class="cls-3" d="M588.47,439.7A105.78,105.78,0,0,1,694.24,333.92c1.22,0,2.43,0,3.64.07,81.69,2.75,112.74,92.21,71,162.47-98.12,165.06-283.37,110.5-419,65.76h0C72.19,470.66-227.1,621.5-318.66,899.14"/></g><circle class="cls-1" cx="540" cy="528.97" r="496.54"/><circle class="cls-3" cx="540" cy="528.97" r="496.54"/></svg>