<svg id="Camada_1" data-name="Camada 1" xmlns="http://www.w3.org/2000/svg" viewBox="0 0 1080 1080"><defs><style>.cls-1,.cls-2{fill:none;stroke-width:20px;}.cls-1,.cls-2,.cls-3{stroke:#00b3ba;}.cls-1,.cls-3{stroke-miterlimit:10;}.cls-2{stroke-linecap:round;stroke-linejoin:round;}.cls-3{fill:#00b3ba;}</style></defs><path class="cls-1" d="M440.1,363a70.51,70.51,0,0,1-141,0c0-38.94,70.51-142.5,70.51-142.5S440.1,324,440.1,363Z"/><path class="cls-1" d="M780.92,363a70.51,70.51,0,0,1-141,0c0-38.94,70.51-142.5,70.51-142.5S780.92,324,780.92,363Z"/><path class="cls-1" d="M610.51,469.49a70.51,70.51,0,0,1-141,0C469.49,430.54,540,327,540,327S610.51,430.54,610.51,469.49Z"/><path class="cls-2" d="M665.45,59.46A497.43,497.43,0,0,0,540,43.46C265.77,43.46,43.46,265.77,43.46,540S265.77,1036.54,540,1036.54a497,497,0,0,0,138.51-19.6c206.82-60,358-250.78,358-476.94C1036.54,309.11,878.94,115,665.45,59.46Z"/><path class="cls-1" d="M440.1,363a70.51,70.51,0,0,1-141,0c0-38.94,70.51-142.5,70.51-142.5S440.1,324,440.1,363Z"/><path class="cls-1" d="M780.92,363a70.51,70.51,0,0,1-141,0c0-38.94,70.51-142.5,70.51-142.5S780.92,324,780.92,363Z"/><path class="cls-1" d="M610.51,469.49a70.51,70.51,0,0,1-141,0C469.49,430.54,540,327,540,327S610.51,430.54,610.51,469.49Z"/><path class="cls-3" d="M418.81,747.87c0,38.94-26.8,70.51-59.87,70.51s-59.86-31.57-59.86-70.51,59.86-142.5,59.86-142.5S418.81,708.93,418.81,747.87Z"/><path class="cls-3" d="M780.92,747.87a70.51,70.51,0,0,1-141,0c0-38.94,70.51-142.5,70.51-142.5S780.92,708.93,780.92,747.87Z"/><path class="cls-3" d="M610.51,854.38a70.51,70.51,0,1,1-141,0c0-39,70.51-142.5,70.51-142.5S610.51,815.43,610.51,854.38Z"/><line class="cls-1" x1="43.46" y1="540" x2="1036.54" y2="540"/></svg>