<svg id="Camada_1" data-name="Camada 1" xmlns="http://www.w3.org/2000/svg" viewBox="0 0 1080 1080"><defs><style>.cls-1{fill:none;stroke-linecap:round;stroke-linejoin:round;stroke-width:20px;}.cls-1,.cls-2{stroke:#00b3ba;}.cls-2{fill:#00b3ba;stroke-miterlimit:10;}</style></defs><circle class="cls-1" cx="536.21" cy="537.75" r="496.54"/><path class="cls-1" d="M821.69,509.75c-17.38-198.6-285.48-151.43-285.48-151.43S268.1,311.15,250.73,509.75c0,0-24.83,322.72,181.22,347.54,0,0,59.57,17.38,104.26,0,44.68,17.38,104.26,0,104.26,0C846.51,832.47,821.69,509.75,821.69,509.75Z"/><path class="cls-1" d="M396.36,206.06s131.57,44.68,139.85,152.26"/><path class="cls-1" d="M505.73,282.19s130.6,19,165.36-108.4c0,0-138.75-24-165.36,108.4"/><path class="cls-2" d="M907.67,570.69a102.14,102.14,0,0,1-204.28,0c0-56.41,102.14-206.41,102.14-206.41S907.67,514.28,907.67,570.69Z"/></svg>