<svg id="Camada_1" data-name="Camada 1" xmlns="http://www.w3.org/2000/svg" viewBox="0 0 1673.28 456.71"><defs><style>.cls-1{font-size:154.1px;font-family:Montserrat-Regular, Montserrat;}.cls-1,.cls-3{fill:#1d1d1b;}.cls-2{letter-spacing:-0.04em;}</style></defs><text class="cls-1" transform="translate(52.03 270.06)"><tspan class="cls-2">b</tspan><tspan x="98.62" y="0">y</tspan></text><path class="cls-3" d="M740.49,213.33c7,8.79,10.27,19.06,10.27,31.92,0,27.69-18.34,44.93-47.68,44.93s-46.77-17-46.77-46.22c0-28.07,18.5-45.67,47.67-45.67,16.14,0,28.8,5.14,36.51,15M681.42,244.7c0,17.41,7.68,26.6,22.41,26.6,14.45,0,21.82-9,21.82-27.34,0-17.8-7.53-26.77-22.39-26.77-14.69,0-21.84,9.19-21.84,27.51"/><path class="cls-3" d="M764.72,199.57v-5.31c0-19.42,7.89-27.69,25.86-27.69h30.28v19.08H799.79c-7.55,0-10.49,2.72-10.49,9.91v4h21.62v19.06H789.3V288.9H764.72V199.57Z"/><path class="cls-3" d="M838.12,166.57h24.57V190.4H838.12ZM862.69,288.9H838.1V199.59h24.59Z"/><path class="cls-3" d="M957.45,218.63H928.11c-18.35,0-26.06,7.53-26.06,25.7,0,9.75,3.13,16.88,9.36,21.08,4.76,3.33,9.53,4.41,19.42,4.41h26.62V288.9H923.9c-18,0-27.35-3.32-35.42-12.29-7.69-8.61-11.56-19.27-11.56-32.65,0-15.6,4.77-27.89,13.76-35.6,7.33-6.21,16.68-8.79,33.22-8.79h33.55Z"/><path class="cls-3" d="M975.31,166.57h24.58V190.4H975.31ZM999.89,288.9H975.31V199.59h24.58Z"/><rect class="cls-3" x="1123.12" y="166.57" width="24.57" height="122.33"/><path class="cls-3" d="M1104.37,220.49c-2.92-9.16-9.35-16.13-17.24-18.7-5.89-1.86-9.19-2.22-24-2.22h-31.54v19.06h31.54c14.84,0,18.72,3.33,18.72,16h-30.1c-9,0-16.14.74-20.16,2-9.75,3.13-16.34,13.4-16.34,25.86,0,9,3.64,16.86,10.27,21.62,5.51,4.07,10.09,4.79,29.18,4.79h39.43a12.3,12.3,0,0,0,12.29-12.27v-38c0-9.49-.4-13-2-18.13m-51,49.33c-9.55,0-13.19-2.21-13.19-7.87,0-3.67,2-6.81,5.31-7.71,2-.56,2-.56,7.88-.56h28.46v16.14Z"/><path class="cls-3" d="M1173.52,199.57v-4c0-20.4,8.61-29,29-29h22.81v14.12H1204.9c-11,0-13.6,2.58-13.6,13.91v5h22.62v14.12H1191.3V288.9h-17.78V199.57Z"/><path class="cls-3" d="M1351.9,199.57c14.86,0,21.84,1.66,27.53,6.81,5.33,4.74,7.15,11.19,7.15,24.73v8.81h-16.7v-8.81c0-13-3.66-16.68-16.14-16.68h-7V288.9H1329V199.57Z"/><path class="cls-3" d="M1482.82,199.57c22,0,25.71.76,32.5,6.43,6.59,5.5,8.77,12.47,8.77,27.69V288.9h-17.8V233.69c0-14.83-5.11-20-20.15-20h-13.77V288.9h-17.79V213.69h-33V288.9h-17.78V199.57Z"/><path class="cls-3" d="M1615.56,207.82c-5.14-6-12.49-8.25-28.43-8.25h-36v14.12h32.12c17.76,0,20.14,2.38,20.14,20.74h-31.73c-11,0-17.6,1.1-22,3.67-7.33,4.22-11.72,13.38-11.72,24,0,8.81,3.31,16.16,9.16,20.92,6.24,4.79,11.37,5.87,28.81,5.87h36.42a8.89,8.89,0,0,0,8.88-8.9V232.41c0-13.55-1.3-19.45-5.69-24.59m-41.83,67c-12.66,0-17.42-3.48-17.42-13s4.76-13.2,17.42-13.2h29.71v26.23Z"/><path class="cls-3" d="M1306.37,207.82c-5.12-6-12.47-8.25-28.43-8.25h-36v14.12h32.1c17.79,0,20.19,2.38,20.19,20.74h-31.76c-11,0-17.6,1.1-22,3.67-7.31,4.22-11.73,13.38-11.73,24,0,8.81,3.34,16.16,9.17,20.92,6.23,4.79,11.39,5.87,28.8,5.87h36.41a8.91,8.91,0,0,0,8.9-8.9V232.41c0-13.55-1.3-19.45-5.69-24.59m-41.81,67c-12.67,0-17.44-3.48-17.44-13s4.77-13.2,17.44-13.2h29.72v26.23Z"/><path class="cls-3" d="M450.5,211.82a46.66,46.66,0,0,0,1.89,12l2.48,9.53L571,203.07a119.5,119.5,0,0,0-22.18-47.79L477.5,173.94c-15.27,4.75-27,20.32-27,37.88"/><path class="cls-3" d="M464.77,271.71,484,345.19a120.78,120.78,0,0,0,88.8-101.7Z"/><path class="cls-3" d="M411.09,222.47c-1.88-7-3.46-14.4-3.46-22.23a63.77,63.77,0,0,1,48.14-61.75l56.84-14.77a120.55,120.55,0,1,0-68.63,225L413.19,230.59c-.65-2.67-1.38-5.4-2.1-8.12"/></svg>