<svg id="Camada_1" data-name="Camada 1" xmlns="http://www.w3.org/2000/svg" viewBox="0 0 1816.07 624.68"><defs><style>.cls-1,.cls-2{fill:#1d1d1b;}.cls-2{stroke:#1d1d1b;stroke-miterlimit:10;stroke-width:0.5px;}</style></defs><path class="cls-1" d="M150.47,161.89q-17.19-9.1-39-9.1t-39.09,9.1a67.65,67.65,0,0,0-27,25.25q-9.73,16.14-9.74,36.65t9.74,36.66a67.65,67.65,0,0,0,27,25.25q17.31,9.09,39.09,9.11t39-9.11a68,68,0,0,0,26.91-25.25q9.74-16.15,9.75-36.66t-9.75-36.65A68,68,0,0,0,150.47,161.89Zm-13.72,89.72Q126.87,262,111.49,262T86.12,251.61q-10-10.38-10-27.82t10-27.81q10-10.38,25.37-10.39T136.75,196q9.85,10.38,9.87,27.81T136.75,251.61Z"/><path class="cls-1" d="M366.13,97.16Q359.22,91,348.19,91t-17.95,6.4a21.72,21.72,0,0,0,0,31.79q6.93,6.41,17.95,6.42t17.94-6.53a21.83,21.83,0,0,0,6.93-16.54A19.73,19.73,0,0,0,366.13,97.16Z"/><rect class="cls-1" x="331.05" y="154.83" width="40" height="137.91"/><path class="cls-1" d="M216.21,188.67V292.75h40V188.67h34.35V157.91H255.17V152q0-20,18.21-20a27.39,27.39,0,0,1,16.15,4.87l10.51-29a41.37,41.37,0,0,0-13.46-5.51,72.9,72.9,0,0,0-17.05-1.93q-25.36,0-39.34,13.85t-14,37.43v36.91Z"/><path class="cls-1" d="M476.1,185.59q20.25,0,31,19l31-16.66a54,54,0,0,0-23.72-26q-16.27-9.09-38.07-9.1-22.05,0-39.6,9.1a68.22,68.22,0,0,0-27.44,25.25q-9.87,16.14-9.86,36.65t9.86,36.66a68.22,68.22,0,0,0,27.44,25.25q17.55,9.09,39.6,9.11,21.79,0,38.07-9.24a55.09,55.09,0,0,0,23.72-25.64l-31-16.92q-10.53,19-31,19-15.64,0-25.89-10.25T440,223.79q0-17.7,10.25-27.94T476.1,185.59Z"/><rect class="cls-1" x="563.1" y="154.83" width="39.99" height="137.91"/><path class="cls-1" d="M598.18,97.16Q591.25,91,580.23,91t-17.94,6.4a21.72,21.72,0,0,0,0,31.79q6.91,6.41,17.94,6.42t17.95-6.53a21.82,21.82,0,0,0,6.92-16.54A19.72,19.72,0,0,0,598.18,97.16Z"/><path class="cls-1" d="M696.53,152.79a121.36,121.36,0,0,0-32.43,4.35,86.49,86.49,0,0,0-27.05,12.31l14.36,27.94A57.23,57.23,0,0,1,669.48,188a69.24,69.24,0,0,1,21.65-3.46q15.92,0,23.86,7.05t8,20.13H691.13q-30.24,0-44.71,11T631.93,253a38.62,38.62,0,0,0,6.16,21.54q6.13,9.48,17.81,14.85t27.56,5.4q30.76,0,42-19.23v17.17h37.43v-78.7q0-30.77-17.18-46T696.53,152.79Zm26.41,96.38a26,26,0,0,1-11.29,14,34.75,34.75,0,0,1-18.2,4.75q-10.5,0-16.53-4.48a14.35,14.35,0,0,1-6-12.19q0-16.14,24.6-16.14h27.44Z"/><rect class="cls-1" x="799.69" y="102.53" width="40.01" height="190.22"/><path class="cls-1" d="M1123.72,150.84c-39.76,0-75,22.91-75,72.12,0,46.61,38.7,71.88,79,71.88,31.32,0,50.54-17.38,58.44-30.8l-2.63-2.12c-6.58,7.9-19.75,17.64-40.81,17.64-29,0-55.28-17.64-57.64-56.6h105.56C1193.19,173.48,1163.46,150.84,1123.72,150.84Zm32.89,66.34h-71.86c-1-36.59,17.64-62.91,39-62.91C1150.3,154.27,1158.46,181.91,1156.61,217.18Z"/><path class="cls-1" d="M1600.23,200.87c0-27.39-7.66-50-44-50-25.8,0-46.08,15.81-58.7,39.49-2.11-22.37-12.12-39.49-43.69-39.49-25.28,0-45.29,15.27-57.93,38.44v-35h-47.36v3.42h15V289.56h-15V293h62.12v-3.43h-14.76V201.12c0-13.42,16.33-31.84,34.49-34.22,27.9-3.41,35.28,10.53,35.28,31.59v91.07H1451V293h61.86v-3.43h-14.74V201.12c0-13.42,16.32-31.84,34.75-34.22,27.9-3.41,35.27,10.53,35.27,31.59v91.07h-15V293h62.12v-3.43h-15Z"/><polygon class="cls-1" points="1252.75 240.66 1252.75 207.69 1252.75 192.96 1252.75 154.27 1205.63 154.27 1205.63 157.69 1220.38 157.69 1220.38 289.56 1205.63 289.56 1205.63 292.99 1276.19 292.99 1276.19 289.56 1252.75 289.56 1252.75 240.66"/><path class="cls-1" d="M1018.79,102.5H971.4v3.44h14.82v75.6c-6.09-13-24.35-31.5-50.56-31.5-31,0-64.6,23.56-64.6,72.54,0,48.7,33.63,72.26,64.6,72.26,26.21,0,44.47-18.53,50.56-31.5V293h47.4v-3.44h-14.83ZM986.22,256.38c-5,8.74-14.56,19.07-29.64,21.71-35.75,6.35-51.89-20.91-51.89-56.91,0-36.28,16.14-63.55,51.89-57.19,15.08,2.66,24.61,13.24,29.64,21.71Z"/><path class="cls-1" d="M1297,150.84c-19,0-34.35,17.44-34.35,17.44s15.38,17.43,34.35,17.43,34.35-17.43,34.35-17.43S1316,150.84,1297,150.84Z"/><path class="cls-2" d="M46.61,398.55a6,6,0,0,1-2-4.55,6.58,6.58,0,0,1,6.68-6.68,6.55,6.55,0,0,1,4.65,1.92,6.1,6.1,0,0,1,2,4.56,6.95,6.95,0,0,1-6.68,6.68A6.48,6.48,0,0,1,46.61,398.55ZM48,428H54.7V533.06H48Z"/><path class="cls-2" d="M199.72,438.64q11.33,11.44,11.34,32.69v61.73h-6.68V471.73q0-18.62-9.42-28.44t-26.82-9.82q-19.63,0-31,11.64t-11.34,31.28v56.67h-6.67V428h6.47v25.71a40.72,40.72,0,0,1,16.3-19.43q11.23-7.08,26.82-7.09Q188.39,427.19,199.72,438.64Z"/><path class="cls-2" d="M322.78,526.39a25,25,0,0,1-9.32,5.36,36.07,36.07,0,0,1-11.73,1.93q-12.76,0-19.75-7.19t-7-19.74V433.88H255.16V428H275V404.94h6.68V428H316.3v5.88H281.68v71.86q0,10.72,5.27,16.39t15.38,5.67a24.34,24.34,0,0,0,17-6.27Z"/><path class="cls-2" d="M460.71,428V533.06h-6.48v-25.5a39.26,39.26,0,0,1-15.58,19.23q-10.74,6.88-25.51,6.89-20.44,0-32-11.34t-11.53-32.59V428h6.68v61.34q0,18.63,9.61,28.44t27.43,9.82q18.82,0,29.76-11.64T454,484.69V428Z"/><path class="cls-2" d="M523.46,398.55a6.07,6.07,0,0,1-2-4.55,6.58,6.58,0,0,1,6.68-6.68,6.57,6.57,0,0,1,4.66,1.92,6.1,6.1,0,0,1,2,4.56,6.95,6.95,0,0,1-6.69,6.68A6.49,6.49,0,0,1,523.46,398.55ZM524.88,428h6.68V533.06h-6.68Z"/><path class="cls-2" d="M648.82,526.39a24.94,24.94,0,0,1-9.31,5.36,36.08,36.08,0,0,1-11.74,1.93q-12.75,0-19.74-7.19t-7-19.74V433.88H581.21V428h19.84V404.94h6.68V428h34.61v5.88H607.73v71.86q0,10.72,5.26,16.39t15.38,5.67a24.28,24.28,0,0,0,17-6.27Z"/><path class="cls-2" d="M698.25,398.55a6.07,6.07,0,0,1-2-4.55,6.58,6.58,0,0,1,6.69-6.68,6.6,6.6,0,0,1,4.66,1.92,6.12,6.12,0,0,1,2,4.56,6.93,6.93,0,0,1-6.68,6.68A6.5,6.5,0,0,1,698.25,398.55ZM699.67,428h6.68V533.06h-6.68Z"/><path class="cls-2" d="M857,428l-48,105.06h-6.68L754.41,428h7.28l44.13,97.57L850,428Z"/><path class="cls-2" d="M989.67,481.45H897.56a48.41,48.41,0,0,0,6.28,23.89,43,43,0,0,0,16.7,16.4,48.34,48.34,0,0,0,23.78,5.86,49.17,49.17,0,0,0,19.83-4,37,37,0,0,0,15-11.64l4.25,4.46a47.3,47.3,0,0,1-17.21,12.75,53.65,53.65,0,0,1-21.86,4.46,55,55,0,0,1-27.43-6.78A49.08,49.08,0,0,1,898,508a54.92,54.92,0,0,1-6.87-27.52,58.3,58.3,0,0,1,6.37-27.53A46.84,46.84,0,0,1,915.17,434a50.29,50.29,0,0,1,50.3-.1,47.58,47.58,0,0,1,17.72,18.62,55.93,55.93,0,0,1,6.48,27.12Zm-70.45-42.71A40.57,40.57,0,0,0,904,454a47.94,47.94,0,0,0-6.27,22h85.62a49.09,49.09,0,0,0-6.59-22,42.75,42.75,0,0,0-57.58-15.28Z"/><path class="cls-2" d="M1132.68,529.83q-11.23-3.86-17.52-10.13l3.24-5.26a53.75,53.75,0,0,0,16.7,9.52,61.21,61.21,0,0,0,21.76,3.84q17,0,25.1-5.77t8.1-16.09c0-4.85-1.44-8.7-4.35-11.54a26.44,26.44,0,0,0-10.83-6.27,153.85,153.85,0,0,0-17.41-4.05,163.29,163.29,0,0,1-20.34-5,30.13,30.13,0,0,1-12.85-8.21q-5.27-5.64-5.27-15.78,0-11.94,9.82-19.94t28.64-8a66.74,66.74,0,0,1,19.43,2.95,46.73,46.73,0,0,1,15.8,7.78l-3.45,5.27a44.9,44.9,0,0,0-14.67-7.39,59.58,59.58,0,0,0-17.31-2.53q-15.58,0-23.48,6a18.75,18.75,0,0,0-7.89,15.69q0,7.69,4.45,12.15a27,27,0,0,0,11,6.57A161.59,161.59,0,0,0,1159.3,478a147.17,147.17,0,0,1,19.63,4.75,30.59,30.59,0,0,1,12.65,8q5.18,5.47,5.17,15.19a23.75,23.75,0,0,1-10.33,20.25q-10.34,7.48-29.76,7.49A73.59,73.59,0,0,1,1132.68,529.83Z"/><path class="cls-2" d="M1339.33,481.45h-92.11a48.41,48.41,0,0,0,6.28,23.89,43,43,0,0,0,16.7,16.4A48.4,48.4,0,0,0,1294,527.6a49.26,49.26,0,0,0,19.84-4,37,37,0,0,0,15-11.64l4.25,4.46a47.21,47.21,0,0,1-17.21,12.75,53.68,53.68,0,0,1-21.86,4.46,55,55,0,0,1-27.43-6.78A49,49,0,0,1,1247.63,508a54.82,54.82,0,0,1-6.88-27.52,58.3,58.3,0,0,1,6.37-27.53A47,47,0,0,1,1264.84,434a50.29,50.29,0,0,1,50.3-.1,47.55,47.55,0,0,1,17.71,18.62,55.93,55.93,0,0,1,6.48,27.12Zm-70.44-42.71A40.66,40.66,0,0,0,1253.7,454a48.06,48.06,0,0,0-6.27,22h85.63a49.2,49.2,0,0,0-6.58-22,42.76,42.76,0,0,0-57.59-15.28Z"/><path class="cls-2" d="M1474.28,438.64q11.34,11.44,11.35,32.69v61.73h-6.69V471.73q0-18.62-9.41-28.44t-26.82-9.82q-19.65,0-31,11.64t-11.33,31.28v56.67h-6.68V428h6.47v25.71a40.83,40.83,0,0,1,16.3-19.43q11.23-7.08,26.83-7.09Q1462.94,427.19,1474.28,438.64Z"/><path class="cls-2" d="M1553,529.83q-11.23-3.86-17.51-10.13l3.24-5.26a53.52,53.52,0,0,0,16.7,9.52,61.13,61.13,0,0,0,21.76,3.84q17,0,25.1-5.77t8.1-16.09q0-7.28-4.35-11.54a26.55,26.55,0,0,0-10.84-6.27,153.32,153.32,0,0,0-17.41-4.05,163.29,163.29,0,0,1-20.34-5,30.25,30.25,0,0,1-12.85-8.21q-5.27-5.64-5.26-15.78,0-11.94,9.81-19.94t28.64-8a66.81,66.81,0,0,1,19.44,2.95,46.68,46.68,0,0,1,15.79,7.78l-3.45,5.27a44.71,44.71,0,0,0-14.67-7.39,59.53,59.53,0,0,0-17.31-2.53q-15.58,0-23.48,6a18.75,18.75,0,0,0-7.89,15.69q0,7.69,4.45,12.15a27,27,0,0,0,11,6.57,161.59,161.59,0,0,0,17.92,4.36,146.78,146.78,0,0,1,19.63,4.75,30.59,30.59,0,0,1,12.65,8q5.18,5.47,5.17,15.19a23.74,23.74,0,0,1-10.32,20.25q-10.35,7.48-29.76,7.49A73.7,73.7,0,0,1,1553,529.83Z"/><path class="cls-2" d="M1759.6,481.45h-92.1a48.41,48.41,0,0,0,6.28,23.89,42.94,42.94,0,0,0,16.7,16.4,48.35,48.35,0,0,0,23.79,5.86,49.24,49.24,0,0,0,19.83-4,37,37,0,0,0,15-11.64l4.25,4.46a47.26,47.26,0,0,1-17.2,12.75,53.72,53.72,0,0,1-21.86,4.46,55,55,0,0,1-27.43-6.78A49.11,49.11,0,0,1,1667.9,508a54.92,54.92,0,0,1-6.88-27.52,58.31,58.31,0,0,1,6.38-27.53A46.91,46.91,0,0,1,1685.11,434a50.29,50.29,0,0,1,50.3-.1,47.55,47.55,0,0,1,17.71,18.62,55.82,55.82,0,0,1,6.48,27.12Zm-70.44-42.71A40.64,40.64,0,0,0,1674,454a47.94,47.94,0,0,0-6.28,22h85.63a49.08,49.08,0,0,0-6.58-22,42.76,42.76,0,0,0-57.59-15.28Z"/><path class="cls-1" d="M1777.28,269.35c-2.11,3.71-6.35,8.48-11.92,8.48-7.39,0-11.12-4.23-11.12-20.12V193.37c0-26-12.16-37.93-32.55-42.42v54.91c-30.55.53-95-4-95,48.69,0,29.23,22.12,40.29,45.8,40.29,27.11,0,43.7-14.49,49.76-29a12.88,12.88,0,0,0,.3,3.68A27.5,27.5,0,0,0,1750,293.44c18.53,0,26.48-13.23,30.44-22.22Zm-119.56-18.21c0-33.43,29.49-43.16,64-42.12v53.7C1701.68,295.36,1657.72,293.25,1657.72,251.14Z"/><path class="cls-1" d="M1676.87,185.71c19.44,0,35.21-17.43,35.21-17.43s-15.77-17.44-35.21-17.44-35.21,17.44-35.21,17.44S1657.43,185.71,1676.87,185.71Z"/></svg>